<svg width="40" height="40" viewBox="0 0 40 40" fill="none" xmlns="http://www.w3.org/2000/svg">
    <path fill-rule="evenodd" clip-rule="evenodd" d="M10.8143 10.8143C11.4001 10.2286 12.3499 10.2286 12.9357 10.8143L20 17.8787L27.0643 10.8143C27.6501 10.2286 28.5999 10.2286 29.1857 10.8143C29.7714 11.4001 29.7714 12.3499 29.1857 12.9357L22.1213 20L29.1857 27.0643C29.7714 27.6501 29.7714 28.5999 29.1857 29.1857C28.5999 29.7714 27.6501 29.7714 27.0643 29.1857L20 22.1213L12.9357 29.1857C12.3499 29.7714 11.4001 29.7714 10.8143 29.1857C10.2286 28.5999 10.2286 27.6501 10.8143 27.0643L17.8787 20L10.8143 12.9357C10.2286 12.3499 10.2286 11.4001 10.8143 10.8143Z" fill="#1C420E"/>
</svg>
