<svg width="24" height="25" viewBox="0 0 24 25" fill="none" xmlns="http://www.w3.org/2000/svg">
<path d="M22.967 19.4269C22.967 19.8229 22.879 20.2299 22.692 20.6259C22.505 21.0219 22.263 21.3959 21.944 21.7479C21.405 22.3419 20.811 22.7709 20.14 23.0459C19.48 23.3209 18.765 23.4639 17.995 23.4639C16.873 23.4639 15.674 23.1999 14.409 22.6609C13.144 22.1219 11.879 21.3959 10.625 20.4829C9.36 19.5589 8.161 18.5359 7.017 17.4029C5.884 16.2589 4.861 15.0599 3.948 13.8059C3.046 12.5519 2.32 11.2979 1.792 10.0549C1.264 8.80087 1 7.60187 1 6.45787C1 5.70987 1.132 4.99487 1.396 4.33487C1.66 3.66387 2.078 3.04787 2.661 2.49787C3.365 1.80487 4.135 1.46387 4.949 1.46387C5.257 1.46387 5.565 1.52987 5.84 1.66187C6.126 1.79387 6.379 1.99187 6.577 2.27787L9.129 5.87487C9.327 6.14987 9.47 6.40287 9.569 6.64487C9.668 6.87587 9.723 7.10687 9.723 7.31587C9.723 7.57987 9.646 7.84387 9.492 8.09687C9.349 8.34987 9.14 8.61387 8.876 8.87787L8.04 9.74687C7.919 9.86787 7.864 10.0109 7.864 10.1869C7.864 10.2749 7.875 10.3519 7.897 10.4399C7.93 10.5279 7.963 10.5939 7.985 10.6599C8.183 11.0229 8.524 11.4959 9.008 12.0679C9.503 12.6399 10.031 13.2229 10.603 13.8059C11.197 14.3889 11.769 14.9279 12.352 15.4229C12.924 15.9069 13.397 16.2369 13.771 16.4349C13.826 16.4569 13.892 16.4899 13.969 16.5229C14.057 16.5559 14.145 16.5669 14.244 16.5669C14.431 16.5669 14.574 16.5009 14.695 16.3799L15.531 15.5549C15.806 15.2799 16.07 15.0709 16.323 14.9389C16.576 14.7849 16.829 14.7079 17.104 14.7079C17.313 14.7079 17.533 14.7519 17.775 14.8509C18.017 14.9499 18.27 15.0929 18.545 15.2799L22.186 17.8649C22.472 18.0629 22.67 18.2939 22.791 18.5689C22.901 18.8439 22.967 19.1189 22.967 19.4269Z" stroke="white" stroke-width="1.5" stroke-miterlimit="10"/>
</svg>
