<svg width="24" height="25" viewBox="0 0 24 25" fill="#F2921D" xmlns="http://www.w3.org/2000/svg">
    <g clip-path="url(#clip0_2030_92)">
        <path d="M18 0.963867H6C2.64 0.963867 0 3.60387 0 6.96387V18.9639C0 22.3239 2.64 24.9639 6 24.9639H18C21.36 24.9639 24 22.3239 24 18.9639V6.96387C24 3.60387 21.36 0.963867 18 0.963867ZM21.6 18.9639C21.6 21.0039 20.04 22.5639 18 22.5639H6C3.96 22.5639 2.4 21.0039 2.4 18.9639V6.96387C2.4 4.92387 3.96 3.36387 6 3.36387H18C20.04 3.36387 21.6 4.92387 21.6 6.96387V18.9639Z"/>
        <path d="M12 6.96387C8.64 6.96387 6 9.60387 6 12.9639C6 16.3239 8.64 18.9639 12 18.9639C15.36 18.9639 18 16.3239 18 12.9639C18 9.60387 15.36 6.96387 12 6.96387ZM12 16.5639C9.96 16.5639 8.4 15.0039 8.4 12.9639C8.4 10.9239 9.96 9.36387 12 9.36387C14.04 9.36387 15.6 10.9239 15.6 12.9639C15.6 15.0039 14.04 16.5639 12 16.5639Z"/>
        <path d="M18 8.16387C18.6627 8.16387 19.2 7.62661 19.2 6.96387C19.2 6.30113 18.6627 5.76387 18 5.76387C17.3373 5.76387 16.8 6.30113 16.8 6.96387C16.8 7.62661 17.3373 8.16387 18 8.16387Z"/>
    </g>
    <defs>
        <clipPath id="clip0_2030_92">
            <rect width="24" height="24" transform="translate(0 0.963867)"/>
        </clipPath>
    </defs>
</svg>
