<svg width="175" height="48" viewBox="0 0 175 48" fill="none" xmlns="http://www.w3.org/2000/svg">
<path d="M7.84 1.66386V39.4239H26.08V46.4639H0.48V1.66386H7.84ZM66.1075 40.5759C61.6275 45.0559 56.1448 47.2959 49.6595 47.2959C43.1742 47.2959 37.6702 45.0559 33.1475 40.5759C28.6675 36.0532 26.4275 30.5492 26.4275 24.0639C26.4275 17.5785 28.6675 12.0959 33.1475 7.61586C37.6702 3.0932 43.1742 0.831863 49.6595 0.831863C56.1448 0.831863 61.6275 3.0932 66.1075 7.61586C70.6302 12.0959 72.8915 17.5785 72.8915 24.0639C72.8915 30.5492 70.6302 36.0532 66.1075 40.5759ZM38.3315 35.5839C41.4462 38.6132 45.2222 40.1279 49.6595 40.1279C54.1395 40.1279 57.8942 38.6132 60.9235 35.5839C63.9955 32.5119 65.5315 28.6719 65.5315 24.0639C65.5315 19.4559 63.9955 15.6372 60.9235 12.6079C57.8942 9.53587 54.1395 7.99987 49.6595 7.99987C45.1795 7.99987 41.4035 9.53587 38.3315 12.6079C35.3022 15.6372 33.7875 19.4559 33.7875 24.0639C33.7875 28.6292 35.3022 32.4692 38.3315 35.5839ZM100.789 23.2959H123.189V26.3679C123.189 32.5119 121.162 37.5465 117.109 41.4719C113.098 45.3545 107.808 47.2959 101.237 47.2959C94.325 47.2959 88.6077 45.0559 84.085 40.5759C79.605 36.0959 77.365 30.5919 77.365 24.0639C77.365 17.5785 79.605 12.0959 84.085 7.61586C88.6077 3.0932 94.197 0.831863 100.853 0.831863C104.992 0.831863 108.789 1.79186 112.245 3.71186C115.744 5.5892 118.453 8.17053 120.373 11.4559L114.037 15.1039C112.842 12.9279 111.072 11.1999 108.725 9.91986C106.378 8.63987 103.754 7.99987 100.853 7.99987C96.1597 7.99987 92.2983 9.53587 89.269 12.6079C86.2397 15.7225 84.725 19.5625 84.725 24.1279C84.725 28.7359 86.2397 32.5545 89.269 35.5839C92.3837 38.6132 96.3943 40.1279 101.301 40.1279C105.226 40.1279 108.448 39.2105 110.965 37.3759C113.482 35.5412 115.082 33.0452 115.765 29.8879H100.789V23.2959ZM167.358 40.5759C162.878 45.0559 157.395 47.2959 150.91 47.2959C144.424 47.2959 138.92 45.0559 134.398 40.5759C129.918 36.0532 127.678 30.5492 127.678 24.0639C127.678 17.5785 129.918 12.0959 134.398 7.61586C138.92 3.0932 144.424 0.831863 150.91 0.831863C157.395 0.831863 162.878 3.0932 167.358 7.61586C171.88 12.0959 174.142 17.5785 174.142 24.0639C174.142 30.5492 171.88 36.0532 167.358 40.5759ZM139.582 35.5839C142.696 38.6132 146.472 40.1279 150.91 40.1279C155.39 40.1279 159.144 38.6132 162.174 35.5839C165.246 32.5119 166.782 28.6719 166.782 24.0639C166.782 19.4559 165.246 15.6372 162.174 12.6079C159.144 9.53587 155.39 7.99987 150.91 7.99987C146.43 7.99987 142.654 9.53587 139.582 12.6079C136.552 15.6372 135.038 19.4559 135.038 24.0639C135.038 28.6292 136.552 32.4692 139.582 35.5839Z" fill="white"/>
</svg>
