<svg width="148" height="40" viewBox="0 0 148 40" fill="none" xmlns="http://www.w3.org/2000/svg">
<path d="M6.27243 0.716254V33.2231H21.8172V39.2837H0V0.716254H6.27243Z" fill="#161616"/>
<path d="M55.9299 34.2149C52.1119 38.0716 47.4394 40 41.9124 40C36.3854 40 31.6947 38.0716 27.8403 34.2149C24.0223 30.3214 22.1133 25.5831 22.1133 20C22.1133 14.4169 24.0223 9.69697 27.8403 5.84022C31.6947 1.94674 36.3854 0 41.9124 0C47.4394 0 52.1119 1.94674 55.9299 5.84022C59.7843 9.69697 61.7114 14.4169 61.7114 20C61.7114 25.5831 59.7843 30.3214 55.9299 34.2149ZM32.2583 29.9174C34.9127 32.5252 38.1307 33.8292 41.9124 33.8292C45.7304 33.8292 48.9302 32.5252 51.5119 29.9174C54.13 27.2727 55.439 23.9669 55.439 20C55.439 16.0331 54.13 12.7456 51.5119 10.1377C48.9302 7.49311 45.7304 6.1708 41.9124 6.1708C38.0944 6.1708 34.8763 7.49311 32.2583 10.1377C29.6766 12.7456 28.3857 16.0331 28.3857 20C28.3857 23.9302 29.6766 27.236 32.2583 29.9174Z" fill="#161616"/>
<path d="M85.4866 19.3388H104.577V21.9835C104.577 27.2727 102.849 31.607 99.395 34.9862C95.977 38.3287 91.4681 40 85.8684 40C79.9778 40 75.1053 38.0716 71.2509 34.2149C67.4329 30.3581 65.5239 25.6198 65.5239 20C65.5239 14.4169 67.4329 9.69697 71.2509 5.84022C75.1053 1.94674 79.8687 0 85.5411 0C89.0683 0 92.3045 0.826447 95.2498 2.47934C98.2315 4.0955 100.54 6.31772 102.177 9.146L96.777 12.2865C95.7589 10.4132 94.2498 8.92562 92.2499 7.82369C90.25 6.72176 88.0138 6.1708 85.5411 6.1708C81.5413 6.1708 78.2506 7.49311 75.6689 10.1377C73.0872 12.8191 71.7963 16.1249 71.7963 20.0551C71.7963 24.022 73.0872 27.3095 75.6689 29.9174C78.3233 32.5252 81.7413 33.8292 85.9229 33.8292C89.2682 33.8292 92.0136 33.0395 94.1589 31.4601C96.3043 29.8806 97.6678 27.7319 98.2496 25.0138H85.4866V19.3388Z" fill="#161616"/>
<path d="M142.218 34.2149C138.4 38.0716 133.728 40 128.201 40C122.674 40 117.983 38.0716 114.129 34.2149C110.311 30.3214 108.402 25.5831 108.402 20C108.402 14.4169 110.311 9.69697 114.129 5.84022C117.983 1.94674 122.674 0 128.201 0C133.728 0 138.4 1.94674 142.218 5.84022C146.073 9.69697 148 14.4169 148 20C148 25.5831 146.073 30.3214 142.218 34.2149ZM118.547 29.9174C121.201 32.5252 124.419 33.8292 128.201 33.8292C132.019 33.8292 135.219 32.5252 137.8 29.9174C140.419 27.2727 141.728 23.9669 141.728 20C141.728 16.0331 140.419 12.7456 137.8 10.1377C135.219 7.49311 132.019 6.1708 128.201 6.1708C124.383 6.1708 121.165 7.49311 118.547 10.1377C115.965 12.7456 114.674 16.0331 114.674 20C114.674 23.9302 115.965 27.236 118.547 29.9174Z" fill="#161616"/>
</svg>
