<svg width="24" height="24" viewBox="0 0 24 24" fill="none" xmlns="http://www.w3.org/2000/svg">
<path d="M22.0421 6C20.6724 6 19.4086 5.54625 18.3938 4.78078C17.2299 3.90328 16.3936 2.61609 16.0983 1.1325C16.0242 0.759464 15.9853 0.380304 15.9821 0H12.0694V10.6913L12.0647 16.5473C12.0647 18.113 11.0452 19.4405 9.63191 19.9073C9.20858 20.0473 8.76271 20.1065 8.31753 20.0817C7.72878 20.0494 7.17706 19.8717 6.69753 19.5848C5.67706 18.9745 4.98519 17.8673 4.96644 16.6008C4.9369 14.6212 6.53722 13.0073 8.51534 13.0073C8.90581 13.0073 9.28081 13.0711 9.63191 13.1869V9.21422C9.26159 9.15938 8.88472 9.13078 8.50362 9.13078C6.33847 9.13078 4.31347 10.0308 2.86597 11.6522C1.7719 12.8775 1.11565 14.4408 1.0144 16.08C0.881748 18.2334 1.66972 20.2805 3.19784 21.7908C3.42237 22.0125 3.65815 22.2183 3.90472 22.4081C5.21487 23.4164 6.81659 23.963 8.50362 23.963C8.88472 23.963 9.26159 23.9348 9.63191 23.88C11.2078 23.6466 12.6619 22.9252 13.8094 21.7908C15.2194 20.3972 15.9985 18.547 16.0069 16.5778L15.9868 7.83281C16.661 8.35287 17.3996 8.78363 18.1842 9.11438C19.4119 9.63234 20.7136 9.89484 22.0533 9.89438V5.99906C22.0543 6 22.043 6 22.0421 6Z" fill="#F2921D"/>
</svg>
