<svg width="25" height="25" viewBox="0 0 25 25" fill="none" xmlns="http://www.w3.org/2000/svg">
<path d="M18.3092 9.86637C18.2145 9.09495 17.978 8.48925 17.558 7.95273C17.0126 7.26189 16.3157 6.8482 15.2839 6.60279C14.6114 6.43923 14.3397 6.45801 14.0965 6.68072C13.87 6.88939 13.8258 7.3077 13.9989 7.57858C14.1206 7.77519 14.2611 7.84563 14.6517 7.9225C15.1719 8.01845 15.5314 8.14298 15.8584 8.33043C16.5525 8.73223 16.8757 9.36098 16.9104 10.3789C16.9265 10.8568 16.9677 11.0038 17.1342 11.1733C17.4428 11.4831 17.9921 11.4229 18.225 11.0521C18.3105 10.9123 18.3236 10.8515 18.3326 10.5269C18.3386 10.326 18.3299 10.027 18.3092 9.86637V9.86637Z" fill="#F2921D"/>
<path d="M21.0283 10.7339C20.8912 8.37047 19.9691 6.46902 18.3189 5.1312C17.3892 4.37948 16.2653 3.86257 15.0334 3.61119C14.5822 3.52128 13.7513 3.44841 13.6088 3.49009C13.4743 3.52869 13.284 3.6747 13.1992 3.80674C13.1096 3.94993 13.0894 4.26962 13.1659 4.45454C13.2893 4.76367 13.519 4.87289 14.1622 4.9293C15.1538 5.01628 16.1766 5.36555 16.9494 5.88261C17.8316 6.47133 18.5329 7.27656 18.9867 8.22279C19.3787 9.03579 19.6198 10.2074 19.6131 11.2566C19.6109 11.636 19.6693 11.8503 19.8215 12.007C20.0513 12.2479 20.3862 12.3006 20.6818 12.1406C21.0093 11.9679 21.0859 11.6647 21.0283 10.7339Z" fill="#F2921D"/>
<path d="M24.0361 19.8359C23.99 19.7008 23.8824 19.4924 23.8055 19.3728C23.3213 18.6397 20.7194 16.5983 19.4203 15.9307C18.6786 15.5487 18.129 15.4213 17.7216 15.5409C17.2834 15.6645 17.0528 15.8689 16.3187 16.7835C16.0228 17.1501 15.7192 17.4936 15.6385 17.5475C15.4386 17.6865 15.0466 17.7984 14.7699 17.7984C14.1281 17.7945 12.9635 17.3778 12.068 16.8298C11.3724 16.4054 10.4808 15.6452 9.79665 14.8927C8.98952 14.009 8.43999 13.2295 8.00564 12.3496C7.44455 11.219 7.30235 10.5282 7.53676 10.0227C7.59442 9.89535 7.6713 9.76033 7.70584 9.71782C7.74046 9.67929 8.10175 9.38212 8.50141 9.05796C9.28549 8.43285 9.4123 8.29007 9.55834 7.86172C9.74281 7.31759 9.69288 6.76191 9.40847 6.2024C9.18938 5.7779 8.61673 4.85177 8.20167 4.25365C7.65208 3.46646 6.28385 1.78398 6.01093 1.55624C5.519 1.15495 4.88875 1.08545 4.19305 1.35563C3.45904 1.6412 2.08309 2.75255 1.49505 3.5282C0.964667 4.2305 0.761037 4.72828 0.730258 5.3843C0.703374 5.92452 0.749477 6.14834 1.03389 6.83911C3.25917 12.257 6.57975 16.5828 11.1418 20.0173C13.5247 21.8116 15.9959 23.1777 18.5594 24.1116C20.0544 24.6557 20.704 24.6827 21.4688 24.2351C21.7916 24.0421 22.591 23.2202 23.0368 22.6221C23.7748 21.6264 24.0477 21.1672 24.1245 20.8006C24.1783 20.5498 24.136 20.1138 24.0361 19.8359V19.8359Z" fill="#F2921D"/>
<path d="M23.7953 11.2782C23.7461 9.9413 23.5215 8.84475 23.0534 7.62219C22.5912 6.4196 22.1234 5.63484 21.24 4.57343C20.4048 3.57823 19.756 3.01 18.7272 2.37747C17.2917 1.49618 15.5448 0.912978 13.5871 0.667707C12.9194 0.581986 12.7684 0.588109 12.5636 0.725126C12.1666 0.984687 12.1719 1.63209 12.5701 1.88776C12.7019 1.96909 12.8189 1.99872 13.3529 2.0688C14.1727 2.17945 14.6999 2.28374 15.3254 2.45484C17.7783 3.12706 19.6645 4.5011 20.9256 6.5408C21.9809 8.24091 22.4189 9.94114 22.3567 12.1126C22.3351 12.8467 22.3508 12.9759 22.4628 13.1523C22.6771 13.4811 23.2424 13.5461 23.5324 13.2733C23.7129 13.107 23.7469 12.9822 23.7824 12.3539C23.7995 12.0261 23.8031 11.5423 23.7953 11.2782V11.2782Z" fill="#F2921D"/>
</svg>
