<svg width="25" height="25" viewBox="0 0 25 25" fill="none" xmlns="http://www.w3.org/2000/svg">
<path d="M12.0625 0.362305C15.2592 0.363678 18.2595 1.60263 20.5156 3.85059C22.7717 6.09842 24.014 9.08604 24.0127 12.2637C24.01 18.8193 18.651 24.1536 12.0625 24.1562H12.0576C10.0579 24.1555 8.09286 23.6563 6.34766 22.709L0.0126953 24.3623L1.70801 18.1992C0.662393 16.3957 0.112385 14.3498 0.113281 12.2539C0.116049 5.69701 5.47611 0.362479 12.0625 0.362305ZM12.0674 2.37012C6.58883 2.37012 2.13307 6.80397 2.13086 12.2539C2.13009 14.1217 2.65518 15.9409 3.64941 17.5146L3.88574 17.8887L2.88184 21.5361L6.6416 20.5547L7.00391 20.7686C8.52872 21.6691 10.2765 22.1457 12.0586 22.1465H12.0635C17.5376 22.1463 21.9929 17.712 21.9951 12.2617C21.9961 9.62059 20.964 7.1369 19.0889 5.26855C17.2138 3.40035 14.72 2.37113 12.0674 2.37012ZM8.4043 6.77246C8.58754 6.78154 8.83388 6.70399 9.07617 7.2832C9.32495 7.87813 9.921 9.33934 9.99609 9.48926C10.0707 9.63795 10.1209 9.81145 10.0215 10.0098C9.92195 10.2079 9.87194 10.3324 9.72266 10.5059C9.57341 10.6793 9.4087 10.8932 9.27441 11.0264C9.12504 11.1744 8.9696 11.3356 9.14355 11.6328C9.31772 11.9303 9.91711 12.9034 10.8047 13.6914C11.945 14.7036 12.9073 15.0173 13.2061 15.166C13.5045 15.3148 13.6793 15.2901 13.8535 15.0918C14.0279 14.8932 14.5999 14.2241 14.7988 13.9268C14.9978 13.6294 15.1971 13.6792 15.4707 13.7783C15.7458 13.8783 17.2123 14.5965 17.5107 14.7451C17.8092 14.8938 18.0084 14.9679 18.083 15.0918C18.1576 15.2159 18.1578 15.8109 17.9092 16.5049C17.6603 17.1989 16.4674 17.8325 15.8936 17.918C15.3792 17.9945 14.7279 18.026 14.0127 17.7998C13.579 17.6629 13.0229 17.48 12.3105 17.1738C9.31699 15.8874 7.36122 12.889 7.20996 12.6875C7.06066 12.4892 5.9903 11.0759 5.99023 9.61328C5.99023 8.15073 6.76147 7.43129 7.03516 7.13379C7.30884 6.83629 7.63299 6.7627 7.83203 6.7627C8.03098 6.7627 8.2304 6.76377 8.4043 6.77246Z" fill="#F2921D"/>
</svg>
